<mxfile host="app.diagrams.net" modified="2024-03-27T09:55:21.239Z" agent="Mozilla/5.0 (X11; Linux x86_64) AppleWebKit/537.36 (KHTML, like Gecko) Chrome/121.0.0.0 Safari/537.36" etag="6rnKslsXNtATzRU-CT_S" version="23.1.1" type="github">
  <diagram name="第 1 页" id="OiEdWgO8v4usmTuc0Krp">
    <mxGraphModel dx="1687" dy="901" grid="1" gridSize="10" guides="1" tooltips="1" connect="1" arrows="1" fold="1" page="1" pageScale="1" pageWidth="827" pageHeight="1169" math="0" shadow="0">
      <root>
        <mxCell id="0" />
        <mxCell id="1" parent="0" />
        <mxCell id="D1l0tPMi3DHWBYAlH8kM-49" value="" style="rounded=0;whiteSpace=wrap;html=1;" vertex="1" parent="1">
          <mxGeometry x="130" y="525" width="470" height="255" as="geometry" />
        </mxCell>
        <mxCell id="D1l0tPMi3DHWBYAlH8kM-48" value="" style="rounded=0;whiteSpace=wrap;html=1;" vertex="1" parent="1">
          <mxGeometry x="110" y="540" width="470" height="255" as="geometry" />
        </mxCell>
        <mxCell id="D1l0tPMi3DHWBYAlH8kM-1" value="AIOS web界面" style="rounded=0;whiteSpace=wrap;html=1;" vertex="1" parent="1">
          <mxGeometry x="110" y="110" width="470" height="60" as="geometry" />
        </mxCell>
        <mxCell id="D1l0tPMi3DHWBYAlH8kM-2" value="" style="rounded=0;whiteSpace=wrap;html=1;" vertex="1" parent="1">
          <mxGeometry x="110" y="220" width="470" height="240" as="geometry" />
        </mxCell>
        <mxCell id="D1l0tPMi3DHWBYAlH8kM-12" value="" style="edgeStyle=orthogonalEdgeStyle;rounded=0;orthogonalLoop=1;jettySize=auto;html=1;" edge="1" parent="1" source="D1l0tPMi3DHWBYAlH8kM-3" target="D1l0tPMi3DHWBYAlH8kM-5">
          <mxGeometry relative="1" as="geometry" />
        </mxCell>
        <mxCell id="D1l0tPMi3DHWBYAlH8kM-14" value="获取集群信息" style="edgeLabel;html=1;align=center;verticalAlign=middle;resizable=0;points=[];" vertex="1" connectable="0" parent="D1l0tPMi3DHWBYAlH8kM-12">
          <mxGeometry x="0.0759" y="-1" relative="1" as="geometry">
            <mxPoint as="offset" />
          </mxGeometry>
        </mxCell>
        <mxCell id="D1l0tPMi3DHWBYAlH8kM-3" value="aios-assitant" style="rounded=0;whiteSpace=wrap;html=1;" vertex="1" parent="1">
          <mxGeometry x="150" y="380" width="70" height="40" as="geometry" />
        </mxCell>
        <mxCell id="D1l0tPMi3DHWBYAlH8kM-4" value="cube-studio" style="rounded=0;whiteSpace=wrap;html=1;" vertex="1" parent="1">
          <mxGeometry x="384" y="380" width="86" height="40" as="geometry" />
        </mxCell>
        <mxCell id="D1l0tPMi3DHWBYAlH8kM-5" value="boc" style="rounded=0;whiteSpace=wrap;html=1;" vertex="1" parent="1">
          <mxGeometry x="150" y="270" width="70" height="40" as="geometry" />
        </mxCell>
        <mxCell id="D1l0tPMi3DHWBYAlH8kM-8" value="" style="endArrow=classic;html=1;rounded=0;exitX=1;exitY=0.25;exitDx=0;exitDy=0;entryX=0;entryY=0.25;entryDx=0;entryDy=0;" edge="1" parent="1" source="D1l0tPMi3DHWBYAlH8kM-3" target="D1l0tPMi3DHWBYAlH8kM-4">
          <mxGeometry width="50" height="50" relative="1" as="geometry">
            <mxPoint x="390" y="300" as="sourcePoint" />
            <mxPoint x="440" y="250" as="targetPoint" />
          </mxGeometry>
        </mxCell>
        <mxCell id="D1l0tPMi3DHWBYAlH8kM-10" value="api" style="edgeLabel;html=1;align=center;verticalAlign=middle;resizable=0;points=[];" vertex="1" connectable="0" parent="D1l0tPMi3DHWBYAlH8kM-8">
          <mxGeometry x="-0.0285" y="-1" relative="1" as="geometry">
            <mxPoint as="offset" />
          </mxGeometry>
        </mxCell>
        <mxCell id="D1l0tPMi3DHWBYAlH8kM-9" value="" style="endArrow=classic;html=1;rounded=0;entryX=1;entryY=0.5;entryDx=0;entryDy=0;exitX=0;exitY=0.5;exitDx=0;exitDy=0;" edge="1" parent="1" source="D1l0tPMi3DHWBYAlH8kM-4" target="D1l0tPMi3DHWBYAlH8kM-3">
          <mxGeometry width="50" height="50" relative="1" as="geometry">
            <mxPoint x="230" y="400" as="sourcePoint" />
            <mxPoint x="450" y="400" as="targetPoint" />
          </mxGeometry>
        </mxCell>
        <mxCell id="D1l0tPMi3DHWBYAlH8kM-11" value="动态维护集群信息" style="text;strokeColor=none;align=center;fillColor=none;html=1;verticalAlign=middle;whiteSpace=wrap;rounded=0;" vertex="1" parent="1">
          <mxGeometry x="290" y="400" width="60" height="30" as="geometry" />
        </mxCell>
        <mxCell id="D1l0tPMi3DHWBYAlH8kM-15" value="" style="rounded=0;whiteSpace=wrap;html=1;" vertex="1" parent="1">
          <mxGeometry x="90" y="555" width="470" height="255" as="geometry" />
        </mxCell>
        <mxCell id="D1l0tPMi3DHWBYAlH8kM-31" value="" style="edgeStyle=orthogonalEdgeStyle;rounded=0;orthogonalLoop=1;jettySize=auto;html=1;" edge="1" parent="1" source="D1l0tPMi3DHWBYAlH8kM-17" target="D1l0tPMi3DHWBYAlH8kM-18">
          <mxGeometry relative="1" as="geometry" />
        </mxCell>
        <mxCell id="D1l0tPMi3DHWBYAlH8kM-32" value="recencile" style="edgeLabel;html=1;align=center;verticalAlign=middle;resizable=0;points=[];" vertex="1" connectable="0" parent="D1l0tPMi3DHWBYAlH8kM-31">
          <mxGeometry x="-0.05" y="-4" relative="1" as="geometry">
            <mxPoint x="3" y="-4" as="offset" />
          </mxGeometry>
        </mxCell>
        <mxCell id="D1l0tPMi3DHWBYAlH8kM-17" value="argo-workflow组件" style="rounded=0;whiteSpace=wrap;html=1;" vertex="1" parent="1">
          <mxGeometry x="140" y="605" width="110" height="40" as="geometry" />
        </mxCell>
        <mxCell id="D1l0tPMi3DHWBYAlH8kM-22" value="" style="group" vertex="1" connectable="0" parent="1">
          <mxGeometry x="370" y="595" width="100" height="45" as="geometry" />
        </mxCell>
        <mxCell id="D1l0tPMi3DHWBYAlH8kM-20" value="" style="rounded=0;whiteSpace=wrap;html=1;" vertex="1" parent="D1l0tPMi3DHWBYAlH8kM-22">
          <mxGeometry x="20" width="80" height="30" as="geometry" />
        </mxCell>
        <mxCell id="D1l0tPMi3DHWBYAlH8kM-19" value="" style="rounded=0;whiteSpace=wrap;html=1;" vertex="1" parent="D1l0tPMi3DHWBYAlH8kM-22">
          <mxGeometry x="10" y="5" width="80" height="30" as="geometry" />
        </mxCell>
        <mxCell id="D1l0tPMi3DHWBYAlH8kM-18" value="workflow资源" style="rounded=0;whiteSpace=wrap;html=1;" vertex="1" parent="D1l0tPMi3DHWBYAlH8kM-22">
          <mxGeometry y="15" width="80" height="30" as="geometry" />
        </mxCell>
        <mxCell id="D1l0tPMi3DHWBYAlH8kM-29" value="" style="endArrow=classic;html=1;rounded=0;exitX=0.5;exitY=1;exitDx=0;exitDy=0;entryX=0.5;entryY=0;entryDx=0;entryDy=0;" edge="1" parent="1" source="D1l0tPMi3DHWBYAlH8kM-3" target="D1l0tPMi3DHWBYAlH8kM-19">
          <mxGeometry width="50" height="50" relative="1" as="geometry">
            <mxPoint x="360" y="540" as="sourcePoint" />
            <mxPoint x="410" y="490" as="targetPoint" />
          </mxGeometry>
        </mxCell>
        <mxCell id="D1l0tPMi3DHWBYAlH8kM-30" value="k8s client监听workflow资源" style="edgeLabel;html=1;align=center;verticalAlign=middle;resizable=0;points=[];" vertex="1" connectable="0" parent="D1l0tPMi3DHWBYAlH8kM-29">
          <mxGeometry x="-0.2641" y="-4" relative="1" as="geometry">
            <mxPoint as="offset" />
          </mxGeometry>
        </mxCell>
        <mxCell id="D1l0tPMi3DHWBYAlH8kM-33" value="" style="endArrow=classic;html=1;rounded=0;entryX=0.5;entryY=0;entryDx=0;entryDy=0;exitX=0.5;exitY=1;exitDx=0;exitDy=0;" edge="1" parent="1" source="D1l0tPMi3DHWBYAlH8kM-4" target="D1l0tPMi3DHWBYAlH8kM-19">
          <mxGeometry width="50" height="50" relative="1" as="geometry">
            <mxPoint x="360" y="540" as="sourcePoint" />
            <mxPoint x="410" y="490" as="targetPoint" />
          </mxGeometry>
        </mxCell>
        <mxCell id="D1l0tPMi3DHWBYAlH8kM-34" value="k8s client crud workflow资源" style="edgeLabel;html=1;align=center;verticalAlign=middle;resizable=0;points=[];" vertex="1" connectable="0" parent="D1l0tPMi3DHWBYAlH8kM-33">
          <mxGeometry x="-0.3153" y="2" relative="1" as="geometry">
            <mxPoint as="offset" />
          </mxGeometry>
        </mxCell>
        <mxCell id="D1l0tPMi3DHWBYAlH8kM-41" value="" style="group" vertex="1" connectable="0" parent="1">
          <mxGeometry x="210" y="730" width="100" height="50" as="geometry" />
        </mxCell>
        <mxCell id="D1l0tPMi3DHWBYAlH8kM-35" value="" style="rounded=0;whiteSpace=wrap;html=1;" vertex="1" parent="D1l0tPMi3DHWBYAlH8kM-41">
          <mxGeometry width="80" height="30" as="geometry" />
        </mxCell>
        <mxCell id="D1l0tPMi3DHWBYAlH8kM-36" value="" style="rounded=0;whiteSpace=wrap;html=1;" vertex="1" parent="D1l0tPMi3DHWBYAlH8kM-41">
          <mxGeometry x="10" y="10" width="80" height="30" as="geometry" />
        </mxCell>
        <mxCell id="D1l0tPMi3DHWBYAlH8kM-37" value="&lt;span style=&quot;color: rgb(0, 0, 0); font-family: Helvetica; font-size: 12px; font-style: normal; font-variant-ligatures: normal; font-variant-caps: normal; font-weight: 400; letter-spacing: normal; orphans: 2; text-align: center; text-indent: 0px; text-transform: none; widows: 2; word-spacing: 0px; -webkit-text-stroke-width: 0px; background-color: rgb(251, 251, 251); text-decoration-thickness: initial; text-decoration-style: initial; text-decoration-color: initial; float: none; display: inline !important;&quot;&gt;工作流pod&lt;/span&gt;" style="rounded=0;whiteSpace=wrap;html=1;" vertex="1" parent="D1l0tPMi3DHWBYAlH8kM-41">
          <mxGeometry x="20" y="20" width="80" height="30" as="geometry" />
        </mxCell>
        <mxCell id="D1l0tPMi3DHWBYAlH8kM-39" value="" style="endArrow=classic;html=1;rounded=0;exitX=0.5;exitY=1;exitDx=0;exitDy=0;entryX=0.5;entryY=0;entryDx=0;entryDy=0;" edge="1" parent="1" source="D1l0tPMi3DHWBYAlH8kM-17" target="D1l0tPMi3DHWBYAlH8kM-36">
          <mxGeometry width="50" height="50" relative="1" as="geometry">
            <mxPoint x="360" y="640" as="sourcePoint" />
            <mxPoint x="410" y="590" as="targetPoint" />
          </mxGeometry>
        </mxCell>
        <mxCell id="D1l0tPMi3DHWBYAlH8kM-42" value="创建" style="edgeLabel;html=1;align=center;verticalAlign=middle;resizable=0;points=[];" vertex="1" connectable="0" parent="D1l0tPMi3DHWBYAlH8kM-39">
          <mxGeometry x="-0.1556" y="1" relative="1" as="geometry">
            <mxPoint as="offset" />
          </mxGeometry>
        </mxCell>
        <mxCell id="D1l0tPMi3DHWBYAlH8kM-46" value="portal集群" style="text;strokeColor=none;align=center;fillColor=none;html=1;verticalAlign=middle;whiteSpace=wrap;rounded=0;" vertex="1" parent="1">
          <mxGeometry x="520" y="220" width="60" height="30" as="geometry" />
        </mxCell>
        <mxCell id="D1l0tPMi3DHWBYAlH8kM-47" value="算力集群" style="text;strokeColor=none;align=center;fillColor=none;html=1;verticalAlign=middle;whiteSpace=wrap;rounded=0;" vertex="1" parent="1">
          <mxGeometry x="520" y="555" width="60" height="30" as="geometry" />
        </mxCell>
        <mxCell id="D1l0tPMi3DHWBYAlH8kM-51" value="" style="endArrow=classic;html=1;rounded=0;entryX=0.5;entryY=0;entryDx=0;entryDy=0;exitX=0.672;exitY=1.019;exitDx=0;exitDy=0;exitPerimeter=0;" edge="1" parent="1" source="D1l0tPMi3DHWBYAlH8kM-1" target="D1l0tPMi3DHWBYAlH8kM-4">
          <mxGeometry width="50" height="50" relative="1" as="geometry">
            <mxPoint x="380" y="380" as="sourcePoint" />
            <mxPoint x="430" y="330" as="targetPoint" />
          </mxGeometry>
        </mxCell>
        <mxCell id="D1l0tPMi3DHWBYAlH8kM-52" value="api&amp;nbsp;" style="edgeLabel;html=1;align=center;verticalAlign=middle;resizable=0;points=[];" vertex="1" connectable="0" parent="D1l0tPMi3DHWBYAlH8kM-51">
          <mxGeometry x="-0.1378" y="3" relative="1" as="geometry">
            <mxPoint as="offset" />
          </mxGeometry>
        </mxCell>
      </root>
    </mxGraphModel>
  </diagram>
</mxfile>
